<svg width="25" height="25" viewBox="0 0 25 25" fill="none" xmlns="http://www.w3.org/2000/svg">
<path d="M3.15527 18.3413V12.3413C3.15527 9.95436 4.10348 7.66517 5.79131 5.97735C7.47914 4.28952 9.76833 3.34131 12.1553 3.34131C14.5422 3.34131 16.8314 4.28952 18.5192 5.97735C20.2071 7.66517 21.1553 9.95436 21.1553 12.3413V18.3413" stroke="#32B0A1" stroke-width="2" stroke-linecap="round" stroke-linejoin="round"/>
<path d="M21.1553 19.3413C21.1553 19.8717 20.9446 20.3804 20.5695 20.7555C20.1944 21.1306 19.6857 21.3413 19.1553 21.3413H18.1553C17.6248 21.3413 17.1161 21.1306 16.7411 20.7555C16.366 20.3804 16.1553 19.8717 16.1553 19.3413V16.3413C16.1553 15.8109 16.366 15.3022 16.7411 14.9271C17.1161 14.552 17.6248 14.3413 18.1553 14.3413H21.1553V19.3413ZM3.15527 19.3413C3.15527 19.8717 3.36599 20.3804 3.74106 20.7555C4.11613 21.1306 4.62484 21.3413 5.15527 21.3413H6.15527C6.68571 21.3413 7.19441 21.1306 7.56949 20.7555C7.94456 20.3804 8.15527 19.8717 8.15527 19.3413V16.3413C8.15527 15.8109 7.94456 15.3022 7.56949 14.9271C7.19441 14.552 6.68571 14.3413 6.15527 14.3413H3.15527V19.3413Z" fill="#32B0A1" fill-opacity="0.2" stroke="#32B0A1" stroke-width="2" stroke-linecap="round" stroke-linejoin="round"/>
</svg>
