<svg width="25" height="25" viewBox="0 0 25 25" fill="none" xmlns="http://www.w3.org/2000/svg">
<path d="M12.6099 13.3723C13.1621 13.3723 13.6099 12.9246 13.6099 12.3723C13.6099 11.82 13.1621 11.3723 12.6099 11.3723C12.0576 11.3723 11.6099 11.82 11.6099 12.3723C11.6099 12.9246 12.0576 13.3723 12.6099 13.3723Z" stroke="black" stroke-opacity="0.45" stroke-width="2" stroke-linecap="round" stroke-linejoin="round"/>
<path d="M19.6099 13.3723C20.1621 13.3723 20.6099 12.9246 20.6099 12.3723C20.6099 11.82 20.1621 11.3723 19.6099 11.3723C19.0576 11.3723 18.6099 11.82 18.6099 12.3723C18.6099 12.9246 19.0576 13.3723 19.6099 13.3723Z" stroke="black" stroke-opacity="0.45" stroke-width="2" stroke-linecap="round" stroke-linejoin="round"/>
<path d="M5.60986 13.3723C6.16215 13.3723 6.60986 12.9246 6.60986 12.3723C6.60986 11.82 6.16215 11.3723 5.60986 11.3723C5.05758 11.3723 4.60986 11.82 4.60986 12.3723C4.60986 12.9246 5.05758 13.3723 5.60986 13.3723Z" stroke="black" stroke-opacity="0.45" stroke-width="2" stroke-linecap="round" stroke-linejoin="round"/>
</svg>
