<svg xmlns="http://www.w3.org/2000/svg" xmlns:xlink="http://www.w3.org/1999/xlink" viewBox="0 0 100 125" version="1.1" x="0px" y="0px"><title>Asterisk 6.11</title><desc>Created with Sketch.</desc><g stroke="none" stroke-width="1" fill="none" fill-rule="evenodd"><g fill="#000000"><path d="M54.2426407,36.7596522 C54.2426407,38.4152401 55.1990273,38.8009727 56.3623397,37.6376603 L66.1760242,27.8239758 C67.7386425,26.2613575 70.2644858,26.2644858 71.8243082,27.8243082 L72.1756918,28.1756918 C73.7275543,29.7275543 73.735663,32.264337 72.1760242,33.8239758 L62.3623397,43.6376603 C61.1916623,44.8083377 61.5951756,45.7573593 63.2403478,45.7573593 L77.1189935,45.7573593 C79.3288696,45.7573593 81.1126984,47.5456123 81.1126984,49.7515342 L81.1126984,50.2484658 C81.1126984,52.4431308 79.3246558,54.2426407 77.1189935,54.2426407 L63.2403478,54.2426407 C61.5847599,54.2426407 61.1990273,55.1990273 62.3623397,56.3623397 L72.1760242,66.1760242 C73.7386425,67.7386425 73.7355142,70.2644858 72.1756918,71.8243082 L71.8243082,72.1756918 C70.2724457,73.7275543 67.735663,73.735663 66.1760242,72.1760242 L56.3623397,62.3623397 C55.1916623,61.1916623 54.2426407,61.5951756 54.2426407,63.2403478 L54.2426407,77.1189935 C54.2426407,79.3288696 52.4543877,81.1126984 50.2484658,81.1126984 L49.7515342,81.1126984 C47.5568692,81.1126984 45.7573593,79.3246558 45.7573593,77.1189935 L45.7573593,63.2403478 C45.7573593,61.5847599 44.8009727,61.1990273 43.6376603,62.3623397 L33.8239758,72.1760242 C32.2613575,73.7386425 29.7355142,73.7355142 28.1756918,72.1756918 L27.8243082,71.8243082 C26.2724457,70.2724457 26.264337,67.735663 27.8239758,66.1760242 L37.6376603,56.3623397 C38.8083377,55.1916623 38.4048244,54.2426407 36.7596522,54.2426407 L22.8810065,54.2426407 C20.6711304,54.2426407 18.8873016,52.4543877 18.8873016,50.2484658 L18.8873016,49.7515342 C18.8873016,47.5568692 20.6753442,45.7573593 22.8810065,45.7573593 L36.7596522,45.7573593 C38.4152401,45.7573593 38.8009727,44.8009727 37.6376603,43.6376603 L27.8239758,33.8239758 C26.2613575,32.2613575 26.2644858,29.7355142 27.8243082,28.1756918 L28.1756918,27.8243082 C29.7275543,26.2724457 32.264337,26.264337 33.8239758,27.8239758 L43.6376603,37.6376603 C44.8083377,38.8083377 45.7573593,38.4048244 45.7573593,36.7596522 L45.7573593,22.8810065 C45.7573593,20.6711304 47.5456123,18.8873016 49.7515342,18.8873016 L50.2484658,18.8873016 C52.4431308,18.8873016 54.2426407,20.6753442 54.2426407,22.8810065 L54.2426407,36.7596522 Z" transform="translate(50.000000, 50.000000) rotate(22.500000) translate(-50.000000, -50.000000) "/></g></g><text x="0" y="115" fill="#000000" font-size="5px" font-weight="bold" font-family="'Helvetica Neue', Helvetica, Arial-Unicode, Arial, Sans-serif">Created by Landan Lloyd</text><text x="0" y="120" fill="#000000" font-size="5px" font-weight="bold" font-family="'Helvetica Neue', Helvetica, Arial-Unicode, Arial, Sans-serif">from the Noun Project</text></svg>