<svg width="21" height="21" viewBox="0 0 21 21" fill="none" xmlns="http://www.w3.org/2000/svg">
<path fill-rule="evenodd" clip-rule="evenodd" d="M2.5 9.81818C2.5 5.95218 5.63401 2.81818 9.5 2.81818C13.366 2.81818 16.5 5.95218 16.5 9.81818C16.5 11.7041 15.7542 13.4159 14.5414 14.6746C14.5072 14.7009 14.4742 14.7297 14.4429 14.7611C14.4115 14.7924 14.3827 14.8253 14.3564 14.8596C13.0977 16.0724 11.3859 16.8182 9.5 16.8182C5.63401 16.8182 2.5 13.6842 2.5 9.81818ZM15.1177 16.8501C13.578 18.0817 11.625 18.8182 9.5 18.8182C4.52944 18.8182 0.5 14.7887 0.5 9.81818C0.5 4.84761 4.52944 0.818176 9.5 0.818176C14.4706 0.818176 18.5 4.84761 18.5 9.81818C18.5 11.9432 17.7635 13.8962 16.5319 15.4359L20.2071 19.1111C20.5976 19.5016 20.5976 20.1348 20.2071 20.5253C19.8166 20.9158 19.1834 20.9158 18.7929 20.5253L15.1177 16.8501Z" fill="#303030" fill-opacity="0.4"/>
</svg>
