<svg width="26" height="26" viewBox="0 0 26 26" fill="none" xmlns="http://www.w3.org/2000/svg">
<path d="M21.4252 22.375V20.2917C21.4252 19.1866 20.9862 18.1268 20.2048 17.3454C19.4234 16.564 18.3636 16.125 17.2585 16.125H8.92521C7.82014 16.125 6.76033 16.564 5.97893 17.3454C5.19753 18.1268 4.75854 19.1866 4.75854 20.2917V22.375" fill="#F26950" fill-opacity="0.2"/>
<path d="M21.4252 22.375V20.2917C21.4252 19.1866 20.9862 18.1268 20.2048 17.3454C19.4234 16.564 18.3636 16.125 17.2585 16.125H8.92521C7.82014 16.125 6.76033 16.564 5.97893 17.3454C5.19753 18.1268 4.75854 19.1866 4.75854 20.2917V22.375" stroke="#F26950" stroke-width="2" stroke-linecap="round" stroke-linejoin="round"/>
<path d="M13.0917 11.9583C15.3929 11.9583 17.2584 10.0929 17.2584 7.79167C17.2584 5.49048 15.3929 3.625 13.0917 3.625C10.7905 3.625 8.92505 5.49048 8.92505 7.79167C8.92505 10.0929 10.7905 11.9583 13.0917 11.9583Z" fill="#F26950" fill-opacity="0.2" stroke="#F26950" stroke-width="2" stroke-linecap="round" stroke-linejoin="round"/>
</svg>
