<svg width="25" height="25" viewBox="0 0 25 25" fill="none" xmlns="http://www.w3.org/2000/svg">
<g clip-path="url(#clip0_1_511)">
<path d="M6.94104 11.1022L12.1163 5.24744L17.5527 11.1022L23.1983 8.38395L19.696 19.8844H4.58861L1.24316 8.38395L6.94104 11.1022Z" fill="#A46CEB" fill-opacity="0.2"/>
<path d="M23.8263 7.50381C23.5428 7.26179 23.1427 7.21079 22.8074 7.37401L17.6772 9.87151L12.8635 4.32142C12.6855 4.11611 12.4271 3.99817 12.1553 3.99817C11.8835 3.99817 11.6251 4.11611 11.4471 4.32142L6.63336 9.87147L1.50317 7.37397C1.16788 7.21079 0.767846 7.26175 0.484253 7.50376C0.200659 7.74578 0.0874088 8.13287 0.195831 8.48959L3.75833 20.2083C3.87838 20.6033 4.24255 20.8732 4.65528 20.8732H19.6553C20.068 20.8732 20.4322 20.6033 20.5522 20.2084L24.1147 8.48964C24.2232 8.13292 24.1099 7.74583 23.8263 7.50381ZM18.9604 18.9982H5.35011L2.61491 10.0006L6.45969 11.8724C6.84144 12.0582 7.30016 11.9643 7.57827 11.6437L12.1553 6.36653L16.7323 11.6437C17.0104 11.9644 17.4693 12.0581 17.8509 11.8724L21.6957 10.0006L18.9604 18.9982Z" fill="#A46CEB"/>
</g>
<defs>
<clipPath id="clip0_1_511">
<rect width="24" height="24" fill="white" transform="translate(0.155273 0.435669)"/>
</clipPath>
</defs>
</svg>
